<?xml version="1.0" standalone="no"?>
<!DOCTYPE svg PUBLIC "-//W3C//DTD SVG 20010904//EN"
 "http://www.w3.org/TR/2001/REC-SVG-20010904/DTD/svg10.dtd">
<svg version="1.0" xmlns="http://www.w3.org/2000/svg"
 width="750.000000pt" height="750.000000pt" viewBox="0 0 750.000000 750.000000"
 preserveAspectRatio="xMidYMid meet">
<g transform="translate(0.000000,750.000000) scale(0.100000,-0.100000)"
fill="#000000" stroke="none">
<path d="M3495 7263 c-478 -39 -883 -149 -1300 -353 -849 -415 -1495 -1157
-1791 -2058 -108 -328 -161 -643 -171 -1007 -8 -332 15 -586 84 -887 29 -131
44 -154 19 -31 -46 227 -62 619 -37 868 41 393 168 837 333 1168 l38 77 151 0
c181 0 274 -17 384 -69 155 -74 232 -173 260 -338 14 -79 15 -219 13 -1074
l-3 -984 -23 -75 c-49 -158 -127 -261 -244 -318 -111 -54 -165 -64 -385 -69
l-203 -5 0 -49 0 -49 1252 2 1253 3 0 45 0 45 -255 6 c-285 7 -338 16 -451 75
-123 65 -201 166 -246 319 -16 56 -18 163 -21 1523 l-3 1462 -78 0 c-76 0 -82
-2 -222 -69 -304 -146 -541 -211 -924 -256 -71 -8 -145 -15 -163 -15 l-34 0
37 68 c20 37 84 138 141 225 553 833 1403 1446 2319 1673 287 71 496 96 790
96 212 0 403 -16 558 -48 123 -25 100 -10 -31 19 -152 35 -337 64 -487 77
-110 9 -464 11 -560 3z"/>
<path d="M3655 5533 c-153 -20 -281 -60 -429 -136 -478 -244 -817 -804 -875
-1447 -88 -963 443 -1814 1232 -1974 256 -53 499 -20 742 99 397 194 692 534
836 966 69 207 109 445 109 655 0 117 -3 114 105 114 45 0 88 -10 175 -41 247
-89 336 -119 358 -119 12 0 22 -4 22 -9 0 -19 -554 -1259 -592 -1325 -114
-196 -213 -277 -380 -311 -22 -4 -28 -11 -28 -30 l0 -25 363 2 362 3 3 22 c3
18 -3 22 -40 28 -98 16 -155 57 -194 140 -38 79 -31 139 28 283 l31 72 372 0
372 0 48 -102 c111 -240 127 -307 82 -352 -30 -30 -104 -46 -212 -46 -84 0
-85 0 -85 -25 l0 -25 240 0 241 0 -43 -57 c-143 -197 -353 -431 -526 -589
-636 -582 -1372 -928 -2162 -1015 -239 -26 -647 -9 -873 37 -123 25 -100 10
31 -19 301 -69 555 -92 887 -84 532 14 983 124 1460 357 930 455 1613 1301
1861 2305 78 319 99 498 99 860 0 284 -7 385 -41 585 -18 107 -66 321 -71 316
-2 -2 5 -55 16 -117 34 -190 43 -314 43 -534 -1 -442 -81 -837 -259 -1275 -47
-117 -211 -452 -231 -472 -6 -6 -600 1270 -639 1370 -4 9 12 12 58 12 142 0
307 45 406 109 226 147 313 405 209 617 -27 54 -54 88 -104 134 -117 108 -220
147 -732 279 -319 82 -405 109 -478 154 -114 69 -150 172 -98 284 63 135 196
203 397 203 274 0 566 -123 704 -297 44 -56 123 -202 157 -290 12 -32 22 -43
37 -43 21 0 21 3 21 305 l0 305 -24 0 c-19 0 -26 -7 -31 -31 -4 -16 -24 -48
-46 -71 -37 -39 -41 -40 -87 -36 -32 3 -95 26 -178 65 -235 111 -398 149 -604
140 -210 -9 -365 -67 -487 -181 -133 -124 -183 -318 -120 -467 24 -57 92 -139
154 -185 101 -76 276 -139 744 -267 346 -96 454 -142 516 -223 155 -204 -50
-453 -373 -454 l-70 0 -17 35 c-21 43 -58 48 -75 10 -15 -32 -31 -31 -134 1
-171 54 -358 165 -478 284 -94 94 -119 135 -141 237 -78 349 -232 638 -468
874 -229 228 -466 355 -750 403 -86 15 -268 19 -346 9z m346 -122 c214 -81
347 -299 403 -661 36 -228 41 -367 41 -1050 0 -705 -4 -793 -46 -1003 -87
-438 -284 -657 -588 -657 -146 0 -244 37 -341 127 -160 148 -247 397 -292 833
-18 170 -18 1345 0 1515 51 495 164 760 369 868 132 68 316 80 454 28z m2026
-2474 l172 -382 -341 -3 c-188 -1 -343 -1 -345 1 -4 5 330 767 337 767 3 0 82
-172 177 -383z"/>
</g>
</svg>
