<?xml version="1.0" encoding="utf-8"?>
<!-- Generator: Adobe Illustrator 25.2.1, SVG Export Plug-In . SVG Version: 6.00 Build 0)  -->
<svg version="1.1" id="Layer_1" xmlns="http://www.w3.org/2000/svg" xmlns:xlink="http://www.w3.org/1999/xlink" x="0px" y="0px"
	 viewBox="0 0 714 714" style="enable-background:new 0 0 714 714;" xml:space="preserve">
<style type="text/css">
	.st0{fill:#FFFFFF;}
	.st1{fill:#C90E0E;}
</style>
<g transform="translate(0.000000,714.000000) scale(0.100000,-0.100000)">
	<path d="M1165,6430c-105-17-128-22-204-45c-138-41-267-105-389-192c-80-57-235-210-277-273c-16-25-32-47-35-50c-6-5-39-60-69-115
		c-51-91-108-252-126-350c-2-16-8-41-12-55s-9-806-10-1760c-2-1657-1-1739,17-1830c33-165,55-232,122-365c61-122,133-220,238-325
		c193-194,417-310,705-366c64-13,4812-15,4865-3c25,6,59,12,75,14c81,11,250,72,355,129c131,70,293,203,391,321
		c86,103,182,281,222,410c38,121,43,142,55,235c9,70,9,3448,0,3515c-36,273-166,533-368,735c-107,107-208,180-337,244
		c-124,61-197,86-378,124C5961,6437,1224,6439,1165,6430z"/>
	<path class="st0" d="M2601.7,3572c0-390-2-780,2-1170c1-74-17-120-85-155c-131-68-254-151-386-215c-359-173-686,12-716,409
		c-16,211-10,423-10,635c1,538-7,1076,11,1613c14,399,347,587,709,418c145-68,282-153,418-238c29-18,55-67,55-101
		C2603.7,4370,2601.7,3971,2601.7,3572z"/>
	<path class="st0" d="M2882.7,2214c406,235,800,463,1194,691c49,28,98,56,144,88c443,305,437,883-22,1165c-361,222-733,427-1101,640
		c-71,41-141,83-211,124c137,247,381,319,652,183c201-101,393-220,589-333c424-244,852-484,1270-738c110-67,218-166,282-276
		c122-212,34-458-208-611s-493-291-741-434c-364-211-725-428-1095-627c-117-63-259-98-392-109C3083.7,1964,2967.7,2061,2882.7,2214z
		"/>
	<path class="st1" d="M2820.7,2423v2282c51-26,88-42,123-62c346-199,692-399,1037-599c49-28,96-59,140-94c265-217,269-545,1-758
		c-115-91-248-159-375-233C3447.7,2784,3147.7,2612,2820.7,2423z"/>
</g>
</svg>
